<svg width="1440" height="181" viewBox="0 0 1440 181" fill="none" xmlns="http://www.w3.org/2000/svg">
<path d="M0 0.285156L30.08 8.87234C60.32 17.3313 120.48 34.5057 180.48 39.6323C240.48 44.759 300.32 37.838 360.32 29.5071C420.32 21.1763 480.48 11.4357 540.48 12.461C600.48 13.4863 660.32 25.534 720.32 33.6085C780.32 41.683 840.48 46.0406 900.48 41.0421C960.48 36.1718 1020.32 22.0735 1080.32 19.7665C1140.32 17.3313 1200.48 26.8157 1260.48 29.1227C1320.48 31.4297 1380.32 26.8156 1410.08 24.3805L1440 22.0735V182.282H1410.08C1380.32 182.282 1320.48 182.282 1260.48 182.282C1200.48 182.282 1140.32 182.282 1080.32 182.282C1020.32 182.282 960.48 182.282 900.48 182.282C840.48 182.282 780.32 182.282 720.32 182.282C660.32 182.282 600.48 182.282 540.48 182.282C480.48 182.282 420.32 182.282 360.32 182.282C300.32 182.282 240.48 182.282 180.48 182.282C120.48 182.282 60.32 182.282 30.08 182.282H0V0.285156Z" fill="#FABB1C"/>
<path d="M0 64.3684L30.08 61.8051C60.32 59.2417 120.48 54.1151 180.48 55.1404C240.48 56.2939 300.32 63.4712 360.32 62.1896C420.32 60.9079 480.48 51.1673 540.48 46.6814C600.48 42.1956 660.32 42.9646 720.32 50.0137C780.32 57.0629 840.48 70.3923 900.48 75.5189C960.48 80.6456 1020.32 77.5696 1080.32 77.5696C1140.32 77.5696 1200.48 80.6456 1260.48 82.5681C1320.48 84.4906 1380.32 85.2596 1410.08 85.7723L1440 86.1567V182.282H1410.08C1380.32 182.282 1320.48 182.282 1260.48 182.282C1200.48 182.282 1140.32 182.282 1080.32 182.282C1020.32 182.282 960.48 182.282 900.48 182.282C840.48 182.282 780.32 182.282 720.32 182.282C660.32 182.282 600.48 182.282 540.48 182.282C480.48 182.282 420.32 182.282 360.32 182.282C300.32 182.282 240.48 182.282 180.48 182.282C120.48 182.282 60.32 182.282 30.08 182.282H0V64.3684Z" fill="#F6A412"/>
<path d="M0 90.0017L30.08 92.565C60.32 95.1283 120.48 100.255 180.48 100.255C240.48 100.255 300.32 95.1283 360.32 94.4875C420.32 93.8467 480.48 97.6917 540.48 97.3072C600.48 96.7945 660.32 92.1805 720.32 87.4383C780.32 82.6962 840.48 78.0822 900.48 77.5695C960.48 77.185 1020.32 81.03 1080.32 88.4637C1140.32 96.0255 1200.48 107.048 1260.48 106.92C1320.48 106.663 1380.32 95.1283 1410.08 89.3608L1440 83.5933V182.282H1410.08C1380.32 182.282 1320.48 182.282 1260.48 182.282C1200.48 182.282 1140.32 182.282 1080.32 182.282C1020.32 182.282 960.48 182.282 900.48 182.282C840.48 182.282 780.32 182.282 720.32 182.282C660.32 182.282 600.48 182.282 540.48 182.282C480.48 182.282 420.32 182.282 360.32 182.282C300.32 182.282 240.48 182.282 180.48 182.282C120.48 182.282 60.32 182.282 30.08 182.282H0V90.0017Z" fill="#F08C0F"/>
<path d="M0 125.888L30.08 119.864C60.32 113.969 120.48 101.921 180.48 96.4099C240.48 90.8988 300.32 91.6678 360.32 96.6663C420.32 101.537 480.48 110.508 540.48 112.431C600.48 114.353 660.32 109.227 720.32 109.483C780.32 109.611 840.48 115.25 900.48 113.969C960.48 112.687 1020.32 104.484 1080.32 106.92C1140.32 109.227 1200.48 122.043 1260.48 121.787C1320.48 121.659 1380.32 108.329 1410.08 101.793L1440 95.1283V182.282H1410.08C1380.32 182.282 1320.48 182.282 1260.48 182.282C1200.48 182.282 1140.32 182.282 1080.32 182.282C1020.32 182.282 960.48 182.282 900.48 182.282C840.48 182.282 780.32 182.282 720.32 182.282C660.32 182.282 600.48 182.282 540.48 182.282C480.48 182.282 420.32 182.282 360.32 182.282C300.32 182.282 240.48 182.282 180.48 182.282C120.48 182.282 60.32 182.282 30.08 182.282H0V125.888Z" fill="#E87412"/>
<path d="M0 125.888L30.08 128.067C60.32 130.118 120.48 134.476 180.48 139.09C240.48 143.832 300.32 148.958 360.32 148.318C420.32 147.677 480.48 141.268 540.48 137.167C600.48 133.194 660.32 131.4 720.32 133.963C780.32 136.526 840.48 143.447 900.48 147.036C960.48 150.625 1020.32 151.137 1080.32 151.265C1140.32 151.522 1200.48 151.522 1260.48 147.036C1320.48 142.55 1380.32 133.578 1410.08 129.093L1440 124.607V182.282H1410.08C1380.32 182.282 1320.48 182.282 1260.48 182.282C1200.48 182.282 1140.32 182.282 1080.32 182.282C1020.32 182.282 960.48 182.282 900.48 182.282C840.48 182.282 780.32 182.282 720.32 182.282C660.32 182.282 600.48 182.282 540.48 182.282C480.48 182.282 420.32 182.282 360.32 182.282C300.32 182.282 240.48 182.282 180.48 182.282C120.48 182.282 60.32 182.282 30.08 182.282H0V125.888Z" fill="#DE5B18"/>
</svg>
